<mxfile host="app.diagrams.net" modified="2022-03-08T19:50:58.292Z" agent="5.0 (Macintosh; Intel Mac OS X 10_15_7) AppleWebKit/537.36 (KHTML, like Gecko) Chrome/99.0.4844.51 Safari/537.36" etag="WHtGIDghhuVdUqE5hG0i" version="16.6.7" type="github">
  <diagram name="Page-1" id="c4acf3e9-155e-7222-9cf6-157b1a14988f">
    <mxGraphModel dx="2874" dy="1398" grid="1" gridSize="10" guides="1" tooltips="1" connect="1" arrows="1" fold="1" page="1" pageScale="1" pageWidth="850" pageHeight="1100" background="none" math="0" shadow="0">
      <root>
        <mxCell id="0" />
        <mxCell id="1" parent="0" />
        <mxCell id="PyNwUk2rie4rai_L8FyX-1" value="Model/Mapper" style="html=1;fillColor=#DEF0FF;strokeColor=#7EA6E0;verticalAlign=top;fontStyle=5;fontSize=16;" vertex="1" parent="1">
          <mxGeometry x="80" y="670" width="400" height="360" as="geometry" />
        </mxCell>
        <mxCell id="PyNwUk2rie4rai_L8FyX-2" value="View" style="html=1;fillColor=#FFFBF0;strokeColor=#FFE599;verticalAlign=top;fontStyle=5;fontSize=16;" vertex="1" parent="1">
          <mxGeometry x="959" y="40" width="351" height="600" as="geometry" />
        </mxCell>
        <mxCell id="PyNwUk2rie4rai_L8FyX-3" value="ViewModel" style="html=1;fillColor=#DEF2DD;strokeColor=#82b366;verticalAlign=top;fontStyle=5;fontSize=16;" vertex="1" parent="1">
          <mxGeometry x="520" y="40" width="400" height="600" as="geometry" />
        </mxCell>
        <mxCell id="PyNwUk2rie4rai_L8FyX-4" value="Repository" style="html=1;fillColor=#dae8fc;strokeColor=#6c8ebf;verticalAlign=top;fontStyle=5;fontSize=16;" vertex="1" parent="1">
          <mxGeometry x="80" y="40" width="400" height="600" as="geometry" />
        </mxCell>
        <mxCell id="PyNwUk2rie4rai_L8FyX-58" value="" style="edgeStyle=orthogonalEdgeStyle;rounded=0;orthogonalLoop=1;jettySize=auto;html=1;endArrow=open;endFill=0;" edge="1" parent="1" source="PyNwUk2rie4rai_L8FyX-9" target="PyNwUk2rie4rai_L8FyX-10">
          <mxGeometry relative="1" as="geometry" />
        </mxCell>
        <mxCell id="PyNwUk2rie4rai_L8FyX-9" value="&lt;p style=&quot;margin: 0px ; margin-top: 4px ; text-align: center&quot;&gt;&lt;i&gt;&amp;lt;&amp;lt;Class&amp;gt;&amp;gt;&lt;/i&gt;&lt;br&gt;&lt;b&gt;Task&lt;/b&gt;&lt;/p&gt;&lt;hr size=&quot;1&quot;&gt;&lt;p style=&quot;margin: 0px ; margin-left: 4px&quot;&gt;+ id: UUID&lt;br&gt;+ title: String&lt;/p&gt;&lt;p style=&quot;margin: 0px ; margin-left: 4px&quot;&gt;+ body: String&lt;/p&gt;&lt;p style=&quot;margin: 0px ; margin-left: 4px&quot;&gt;+ dueDate: Date&lt;/p&gt;&lt;p style=&quot;margin: 0px ; margin-left: 4px&quot;&gt;+ processStatus: ProcessStatus&lt;/p&gt;&lt;hr size=&quot;1&quot;&gt;&lt;p style=&quot;margin: 0px ; margin-left: 4px&quot;&gt;+ init(title:body:dueDate:processStatus)&lt;br&gt;&lt;/p&gt;" style="verticalAlign=top;align=left;overflow=fill;fontSize=12;fontFamily=Helvetica;html=1;rounded=0;shadow=0;comic=0;labelBackgroundColor=none;strokeWidth=1" vertex="1" parent="1">
          <mxGeometry x="90" y="720" width="380" height="160" as="geometry" />
        </mxCell>
        <mxCell id="PyNwUk2rie4rai_L8FyX-10" value="&lt;p style=&quot;margin: 0px ; margin-top: 4px ; text-align: center&quot;&gt;&lt;i&gt;&amp;lt;&amp;lt;Enum&amp;gt;&amp;gt;&lt;/i&gt;&lt;br&gt;&lt;b&gt;ProcessStatus&lt;/b&gt;&lt;/p&gt;&lt;hr size=&quot;1&quot;&gt;&lt;p style=&quot;margin: 0px ; margin-left: 4px&quot;&gt;+ case todo&lt;/p&gt;&lt;p style=&quot;margin: 0px ; margin-left: 4px&quot;&gt;+ case doing&lt;/p&gt;&lt;p style=&quot;margin: 0px ; margin-left: 4px&quot;&gt;+ case done&lt;/p&gt;&lt;p style=&quot;margin: 0px ; margin-left: 4px&quot;&gt;&lt;/p&gt;&lt;p style=&quot;margin: 0px ; margin-left: 4px&quot;&gt;&lt;br&gt;&lt;/p&gt;" style="verticalAlign=top;align=left;overflow=fill;fontSize=12;fontFamily=Helvetica;html=1;rounded=0;shadow=0;comic=0;labelBackgroundColor=none;strokeWidth=1" vertex="1" parent="1">
          <mxGeometry x="90" y="910" width="380" height="100" as="geometry" />
        </mxCell>
        <mxCell id="PyNwUk2rie4rai_L8FyX-27" value="&lt;p style=&quot;margin: 0px ; margin-top: 4px ; text-align: center&quot;&gt;&lt;i&gt;&amp;lt;&amp;lt;Protocol&amp;gt;&amp;gt;&lt;/i&gt;&lt;br&gt;&lt;b&gt;TaskRepositoryProtocol&lt;/b&gt;&lt;br&gt;&lt;/p&gt;&lt;hr size=&quot;1&quot;&gt;&lt;p style=&quot;margin: 0px ; margin-left: 4px&quot;&gt;+ entireTasks: [Task]&lt;/p&gt;&lt;p style=&quot;margin: 0px ; margin-left: 4px&quot;&gt;&lt;/p&gt;&amp;nbsp;+ todoTasks: [Task]&lt;br&gt;&amp;nbsp;+ doingTasks: [Task]&lt;br&gt;&amp;nbsp;+ doneTasks: [Task]&lt;br&gt;&lt;hr&gt;&amp;nbsp;+&amp;nbsp;create(task:)&lt;br&gt;&amp;nbsp;+&amp;nbsp;update(task:newTitle:newBody:newDueDate:newProcessStatus:)&lt;br&gt;&amp;nbsp;+ delete(task:)" style="verticalAlign=top;align=left;overflow=fill;fontSize=12;fontFamily=Helvetica;html=1;rounded=0;shadow=0;comic=0;labelBackgroundColor=none;strokeWidth=1" vertex="1" parent="1">
          <mxGeometry x="90" y="150" width="380" height="170" as="geometry" />
        </mxCell>
        <mxCell id="PyNwUk2rie4rai_L8FyX-29" style="edgeStyle=orthogonalEdgeStyle;rounded=0;orthogonalLoop=1;jettySize=auto;html=1;exitX=0.5;exitY=0;exitDx=0;exitDy=0;entryX=0.5;entryY=1;entryDx=0;entryDy=0;endArrow=block;endFill=0;dashed=1;" edge="1" parent="1" source="PyNwUk2rie4rai_L8FyX-28" target="PyNwUk2rie4rai_L8FyX-27">
          <mxGeometry relative="1" as="geometry" />
        </mxCell>
        <mxCell id="PyNwUk2rie4rai_L8FyX-62" style="edgeStyle=orthogonalEdgeStyle;rounded=0;orthogonalLoop=1;jettySize=auto;html=1;exitX=0.25;exitY=1;exitDx=0;exitDy=0;entryX=0.25;entryY=0;entryDx=0;entryDy=0;fontSize=16;endArrow=open;endFill=0;" edge="1" parent="1" source="PyNwUk2rie4rai_L8FyX-28" target="PyNwUk2rie4rai_L8FyX-9">
          <mxGeometry relative="1" as="geometry" />
        </mxCell>
        <mxCell id="PyNwUk2rie4rai_L8FyX-28" value="&lt;p style=&quot;margin: 0px ; margin-top: 4px ; text-align: center&quot;&gt;&lt;i&gt;&amp;lt;&amp;lt;Class&amp;gt;&amp;gt;&lt;/i&gt;&lt;br&gt;&lt;b&gt;TaskRepository&lt;/b&gt;&lt;br&gt;&lt;/p&gt;&lt;hr size=&quot;1&quot;&gt;&lt;p style=&quot;margin: 0px ; margin-left: 4px&quot;&gt;+ entireTasks: [Task]&lt;/p&gt;&lt;p style=&quot;margin: 0px ; margin-left: 4px&quot;&gt;&lt;/p&gt;&amp;nbsp;+ todoTasks: [Task]&lt;br&gt;&amp;nbsp;+ doingTasks: [Task]&lt;br&gt;&amp;nbsp;+ doneTasks: [Task]&lt;br&gt;&lt;hr&gt;&amp;nbsp;+&amp;nbsp;init(entireTasks:)&lt;br&gt;&amp;nbsp;+&amp;nbsp;create(task:)&lt;br&gt;&amp;nbsp;+&amp;nbsp;update(task:newTitle:newBody:newDueDate:newProcessStatus:)&lt;br&gt;&amp;nbsp;+ delete(task:)" style="verticalAlign=top;align=left;overflow=fill;fontSize=12;fontFamily=Helvetica;html=1;rounded=0;shadow=0;comic=0;labelBackgroundColor=none;strokeWidth=1" vertex="1" parent="1">
          <mxGeometry x="90" y="380" width="380" height="210" as="geometry" />
        </mxCell>
        <mxCell id="PyNwUk2rie4rai_L8FyX-32" value="&lt;p style=&quot;margin: 0px ; margin-top: 4px ; text-align: center&quot;&gt;&lt;i&gt;&amp;lt;&amp;lt;Protocol&amp;gt;&amp;gt;&lt;/i&gt;&lt;br&gt;&lt;/p&gt;&lt;div style=&quot;text-align: center&quot;&gt;&lt;span&gt;&lt;b&gt;TaskListViewModelProtocol&lt;/b&gt;&lt;/span&gt;&lt;/div&gt;&lt;hr size=&quot;1&quot;&gt;&lt;p style=&quot;margin: 0px ; margin-left: 4px&quot;&gt;+ todoTasksObservable: MockObservable&amp;lt;[Task]&amp;gt;&lt;/p&gt;&lt;p style=&quot;margin: 0px ; margin-left: 4px&quot;&gt;&lt;/p&gt;&amp;nbsp;+ doindTasksObservable: MockObservable&amp;lt;[Task]&amp;gt;&lt;br&gt;&amp;nbsp;+ doneTasksObservable: MockObservable&amp;lt;[Task]&amp;gt;&lt;br&gt;&lt;hr&gt;&amp;nbsp;+&amp;nbsp;create(task:)&lt;br&gt;&amp;nbsp;+&amp;nbsp;update(task:newTitle:newBody:newDueDate:newProcessStatus:)&lt;br&gt;&amp;nbsp;+ delete(task:)&lt;br&gt;&lt;br&gt;&amp;nbsp;+&amp;nbsp;numberOfRowsInSection(forTableOf) -&amp;gt; Int&lt;br&gt;&amp;nbsp;+&amp;nbsp;titleForHeaderInSection(forTableOf:) -&amp;gt; String&lt;br&gt;&amp;nbsp;+&amp;nbsp;edit(task:newTitle:newBody:newDueDate:)&lt;br&gt;&amp;nbsp;+&amp;nbsp;edit(task:newProcessStatus:)" style="verticalAlign=top;align=left;overflow=fill;fontSize=12;fontFamily=Helvetica;html=1;rounded=0;shadow=0;comic=0;labelBackgroundColor=none;strokeWidth=1" vertex="1" parent="1">
          <mxGeometry x="530" y="90" width="380" height="230" as="geometry" />
        </mxCell>
        <mxCell id="PyNwUk2rie4rai_L8FyX-33" style="edgeStyle=orthogonalEdgeStyle;rounded=0;orthogonalLoop=1;jettySize=auto;html=1;exitX=0.5;exitY=0;exitDx=0;exitDy=0;entryX=0.5;entryY=1;entryDx=0;entryDy=0;endArrow=block;endFill=0;dashed=1;" edge="1" parent="1" source="PyNwUk2rie4rai_L8FyX-34" target="PyNwUk2rie4rai_L8FyX-32">
          <mxGeometry relative="1" as="geometry" />
        </mxCell>
        <mxCell id="PyNwUk2rie4rai_L8FyX-50" style="edgeStyle=orthogonalEdgeStyle;rounded=0;orthogonalLoop=1;jettySize=auto;html=1;exitX=0;exitY=0.5;exitDx=0;exitDy=0;entryX=1;entryY=0.5;entryDx=0;entryDy=0;endArrow=open;endFill=0;" edge="1" parent="1" source="PyNwUk2rie4rai_L8FyX-34" target="PyNwUk2rie4rai_L8FyX-28">
          <mxGeometry relative="1" as="geometry" />
        </mxCell>
        <mxCell id="PyNwUk2rie4rai_L8FyX-34" value="&lt;p style=&quot;margin: 4px 0px 0px ; text-align: center&quot;&gt;&lt;i&gt;&amp;lt;&amp;lt;class&amp;gt;&amp;gt;&lt;/i&gt;&lt;br&gt;&lt;/p&gt;&lt;div style=&quot;text-align: center&quot;&gt;&lt;b&gt;TaskListViewModel&lt;/b&gt;&lt;br&gt;&lt;/div&gt;&lt;hr size=&quot;1&quot;&gt;&lt;p style=&quot;margin: 0px 0px 0px 4px&quot;&gt;-&amp;nbsp;taskRepository: TaskRepositoryProtocol&lt;/p&gt;&lt;p style=&quot;margin: 0px 0px 0px 4px&quot;&gt;+ todoTasksObservable: MockObservable&amp;lt;[Task]&amp;gt;&lt;/p&gt;&lt;p style=&quot;margin: 0px 0px 0px 4px&quot;&gt;&lt;/p&gt;&amp;nbsp;+ doindTasksObservable: MockObservable&amp;lt;[Task]&amp;gt;&lt;br&gt;&amp;nbsp;+ doneTasksObservable: MockObservable&amp;lt;[Task]&amp;gt;&lt;br&gt;&lt;hr&gt;&amp;nbsp;+&amp;nbsp;init()&lt;br&gt;&amp;nbsp;+&amp;nbsp;create(task:)&lt;br&gt;&amp;nbsp;+&amp;nbsp;update(task:newTitle:newBody:newDueDate:newProcessStatus:)&lt;br&gt;&amp;nbsp;+ delete(task:)&lt;br&gt;&lt;br&gt;&amp;nbsp;+&amp;nbsp;numberOfRowsInSection(forTableOf) -&amp;gt; Int&lt;br&gt;&amp;nbsp;+&amp;nbsp;titleForHeaderInSection(forTableOf:) -&amp;gt; String&lt;br&gt;&amp;nbsp;+&amp;nbsp;edit(task:newTitle:newBody:newDueDate:)&lt;br&gt;&amp;nbsp;+&amp;nbsp;edit(task:newProcessStatus:)&lt;p style=&quot;margin: 0px ; margin-top: 4px ; text-align: center&quot;&gt;&lt;/p&gt;" style="verticalAlign=top;align=left;overflow=fill;fontSize=12;fontFamily=Helvetica;html=1;rounded=0;shadow=0;comic=0;labelBackgroundColor=none;strokeWidth=1" vertex="1" parent="1">
          <mxGeometry x="530" y="355" width="380" height="260" as="geometry" />
        </mxCell>
        <mxCell id="PyNwUk2rie4rai_L8FyX-38" value="" style="edgeStyle=orthogonalEdgeStyle;rounded=0;orthogonalLoop=1;jettySize=auto;html=1;dashed=1;endArrow=block;endFill=0;" edge="1" parent="1" source="PyNwUk2rie4rai_L8FyX-37" target="PyNwUk2rie4rai_L8FyX-35">
          <mxGeometry relative="1" as="geometry" />
        </mxCell>
        <mxCell id="PyNwUk2rie4rai_L8FyX-46" style="edgeStyle=orthogonalEdgeStyle;rounded=0;orthogonalLoop=1;jettySize=auto;html=1;exitX=0;exitY=0.5;exitDx=0;exitDy=0;entryX=1;entryY=0.25;entryDx=0;entryDy=0;endArrow=open;endFill=0;" edge="1" parent="1" source="PyNwUk2rie4rai_L8FyX-40" target="PyNwUk2rie4rai_L8FyX-34">
          <mxGeometry relative="1" as="geometry" />
        </mxCell>
        <mxCell id="PyNwUk2rie4rai_L8FyX-40" value="&lt;p style=&quot;margin: 4px 0px 0px ; text-align: center&quot;&gt;&lt;i&gt;&amp;lt;&amp;lt;class&amp;gt;&amp;gt;&lt;/i&gt;&lt;br&gt;&lt;/p&gt;&lt;div style=&quot;text-align: center&quot;&gt;&lt;b&gt;TaskListViewController&lt;/b&gt;&lt;br&gt;&lt;/div&gt;&lt;hr size=&quot;1&quot;&gt;&lt;p style=&quot;margin: 0px 0px 0px 4px&quot;&gt;-&amp;nbsp;taskListViewModel: TaskListViewModelProtocol&lt;/p&gt;&lt;br&gt;&lt;p style=&quot;margin: 0px ; margin-top: 4px ; text-align: center&quot;&gt;&lt;/p&gt;" style="verticalAlign=top;align=left;overflow=fill;fontSize=12;fontFamily=Helvetica;html=1;rounded=0;shadow=0;comic=0;labelBackgroundColor=none;strokeWidth=1" vertex="1" parent="1">
          <mxGeometry x="970" y="380" width="310" height="80" as="geometry" />
        </mxCell>
        <mxCell id="PyNwUk2rie4rai_L8FyX-41" value="Task 목록 화면" style="html=1;fillColor=#fff2cc;strokeColor=#d6b656;" vertex="1" parent="1">
          <mxGeometry x="1200" y="350" width="100" height="50" as="geometry" />
        </mxCell>
        <mxCell id="PyNwUk2rie4rai_L8FyX-47" style="edgeStyle=orthogonalEdgeStyle;rounded=0;orthogonalLoop=1;jettySize=auto;html=1;exitX=0;exitY=0.5;exitDx=0;exitDy=0;entryX=1;entryY=0.75;entryDx=0;entryDy=0;endArrow=open;endFill=0;" edge="1" parent="1" source="PyNwUk2rie4rai_L8FyX-44" target="PyNwUk2rie4rai_L8FyX-34">
          <mxGeometry relative="1" as="geometry" />
        </mxCell>
        <mxCell id="PyNwUk2rie4rai_L8FyX-44" value="&lt;p style=&quot;margin: 4px 0px 0px ; text-align: center&quot;&gt;&lt;i&gt;&amp;lt;&amp;lt;class&amp;gt;&amp;gt;&lt;/i&gt;&lt;br&gt;&lt;/p&gt;&lt;div style=&quot;text-align: center&quot;&gt;&lt;b&gt;TaskDetailController&lt;/b&gt;&lt;br&gt;&lt;/div&gt;&lt;hr size=&quot;1&quot;&gt;&lt;p style=&quot;margin: 0px 0px 0px 4px&quot;&gt;-&amp;nbsp;taskListViewModel: TaskListViewModelProtocol&lt;/p&gt;&lt;br&gt;&lt;p style=&quot;margin: 0px ; margin-top: 4px ; text-align: center&quot;&gt;&lt;/p&gt;" style="verticalAlign=top;align=left;overflow=fill;fontSize=12;fontFamily=Helvetica;html=1;rounded=0;shadow=0;comic=0;labelBackgroundColor=none;strokeWidth=1" vertex="1" parent="1">
          <mxGeometry x="970" y="510" width="310" height="80" as="geometry" />
        </mxCell>
        <mxCell id="PyNwUk2rie4rai_L8FyX-54" value="DB" style="html=1;fillColor=#E6E4FA;strokeColor=#56517e;verticalAlign=top;fontStyle=5;fontSize=16;" vertex="1" parent="1">
          <mxGeometry x="-360" y="40" width="400" height="600" as="geometry" />
        </mxCell>
        <mxCell id="PyNwUk2rie4rai_L8FyX-35" value="&lt;p style=&quot;margin: 0px ; margin-top: 4px ; text-align: center&quot;&gt;&lt;i&gt;&amp;lt;&amp;lt;Protocol&amp;gt;&amp;gt;&lt;/i&gt;&lt;br&gt;&lt;b&gt;StorageProtocol&lt;/b&gt;&lt;/p&gt;&lt;hr&gt;&amp;nbsp;+&amp;nbsp;create(task:)&lt;br&gt;&amp;nbsp;+ fetchAll() -&amp;gt; [Task]&lt;br&gt;&amp;nbsp;+&amp;nbsp;update(task:newTitle:newBody:newDueDate:newProcessStatus:)&lt;br&gt;&amp;nbsp;+ delete(task:)" style="verticalAlign=top;align=left;overflow=fill;fontSize=12;fontFamily=Helvetica;html=1;rounded=0;shadow=0;comic=0;labelBackgroundColor=none;strokeWidth=1;" vertex="1" parent="1">
          <mxGeometry x="-350" y="350" width="380" height="110" as="geometry" />
        </mxCell>
        <mxCell id="PyNwUk2rie4rai_L8FyX-60" value="" style="edgeStyle=orthogonalEdgeStyle;rounded=0;orthogonalLoop=1;jettySize=auto;html=1;endArrow=block;endFill=0;dashed=1;" edge="1" parent="1" source="PyNwUk2rie4rai_L8FyX-37" target="PyNwUk2rie4rai_L8FyX-35">
          <mxGeometry relative="1" as="geometry" />
        </mxCell>
        <mxCell id="PyNwUk2rie4rai_L8FyX-37" value="&lt;p style=&quot;margin: 4px 0px 0px ; text-align: center&quot;&gt;&lt;i&gt;&amp;lt;&amp;lt;class&amp;gt;&amp;gt;&lt;/i&gt;&lt;br&gt;&lt;b&gt;LocalStorage (예정)&lt;/b&gt;&lt;/p&gt;&lt;hr&gt;&amp;nbsp;+&amp;nbsp;create(task:)&lt;br&gt;&amp;nbsp;+ fetchAll() -&amp;gt; [Task]&lt;br&gt;&amp;nbsp;+&amp;nbsp;update(task:newTitle:newBody:newDueDate:newProcessStatus:)&lt;br&gt;&amp;nbsp;+ delete(task:)&lt;p style=&quot;margin: 0px ; margin-top: 4px ; text-align: center&quot;&gt;&lt;/p&gt;" style="verticalAlign=top;align=left;overflow=fill;fontSize=12;fontFamily=Helvetica;html=1;rounded=0;shadow=0;comic=0;labelBackgroundColor=none;strokeWidth=1" vertex="1" parent="1">
          <mxGeometry x="-350" y="196" width="380" height="110" as="geometry" />
        </mxCell>
        <mxCell id="PyNwUk2rie4rai_L8FyX-61" value="" style="edgeStyle=orthogonalEdgeStyle;rounded=0;orthogonalLoop=1;jettySize=auto;html=1;dashed=1;endArrow=block;endFill=0;" edge="1" parent="1" source="PyNwUk2rie4rai_L8FyX-39" target="PyNwUk2rie4rai_L8FyX-35">
          <mxGeometry relative="1" as="geometry" />
        </mxCell>
        <mxCell id="PyNwUk2rie4rai_L8FyX-39" value="&lt;p style=&quot;margin: 4px 0px 0px ; text-align: center&quot;&gt;&lt;i&gt;&amp;lt;&amp;lt;class&amp;gt;&amp;gt;&lt;/i&gt;&lt;br&gt;&lt;b&gt;RemoteStorage (예정)&lt;/b&gt;&lt;/p&gt;&lt;hr&gt;&amp;nbsp;+&amp;nbsp;create(task:)&lt;br&gt;&amp;nbsp;+ fetchAll() -&amp;gt; [Task]&lt;br&gt;&amp;nbsp;+&amp;nbsp;update(task:newTitle:newBody:newDueDate:newProcessStatus:)&lt;br&gt;&amp;nbsp;+ delete(task:)&lt;p style=&quot;margin: 0px ; margin-top: 4px ; text-align: center&quot;&gt;&lt;/p&gt;" style="verticalAlign=top;align=left;overflow=fill;fontSize=12;fontFamily=Helvetica;html=1;rounded=0;shadow=0;comic=0;labelBackgroundColor=none;strokeWidth=1" vertex="1" parent="1">
          <mxGeometry x="-350" y="504" width="380" height="110" as="geometry" />
        </mxCell>
        <mxCell id="PyNwUk2rie4rai_L8FyX-56" value="Task 추가 화면" style="html=1;fillColor=#fff2cc;strokeColor=#d6b656;" vertex="1" parent="1">
          <mxGeometry x="1200" y="480" width="100" height="50" as="geometry" />
        </mxCell>
        <mxCell id="PyNwUk2rie4rai_L8FyX-6" value="Local DB&lt;br&gt;(Realm)" style="html=1;fillColor=#e1d5e7;strokeColor=#9673a6;" vertex="1" parent="1">
          <mxGeometry x="-60" y="166" width="80" height="50" as="geometry" />
        </mxCell>
        <mxCell id="PyNwUk2rie4rai_L8FyX-7" value="Remote DB&lt;br&gt;(Firestore)" style="html=1;fillColor=#e1d5e7;strokeColor=#9673a6;" vertex="1" parent="1">
          <mxGeometry x="-60" y="484" width="80" height="50" as="geometry" />
        </mxCell>
        <mxCell id="PyNwUk2rie4rai_L8FyX-63" style="edgeStyle=orthogonalEdgeStyle;rounded=0;orthogonalLoop=1;jettySize=auto;html=1;exitX=0;exitY=0.5;exitDx=0;exitDy=0;entryX=1;entryY=0.5;entryDx=0;entryDy=0;fontSize=16;endArrow=open;endFill=0;" edge="1" parent="1" source="PyNwUk2rie4rai_L8FyX-28" target="PyNwUk2rie4rai_L8FyX-35">
          <mxGeometry relative="1" as="geometry" />
        </mxCell>
        <mxCell id="PyNwUk2rie4rai_L8FyX-64" value="&lt;font color=&quot;#000000&quot;&gt;MockObservable&lt;/font&gt;" style="html=1;fillColor=#E8F5DA;strokeColor=#3A5431;verticalAlign=top;fontStyle=5;fontSize=16;fontColor=#ffffff;" vertex="1" parent="1">
          <mxGeometry x="520" y="670" width="400" height="360" as="geometry" />
        </mxCell>
        <mxCell id="PyNwUk2rie4rai_L8FyX-65" value="&lt;p style=&quot;margin: 0px ; margin-top: 4px ; text-align: center&quot;&gt;&lt;i&gt;&amp;lt;&amp;lt;Class&amp;gt;&amp;gt;&lt;/i&gt;&lt;br&gt;&lt;b&gt;MockObservable&lt;/b&gt;&lt;br&gt;&lt;/p&gt;&lt;hr size=&quot;1&quot;&gt;&lt;p style=&quot;margin: 0px ; margin-left: 4px&quot;&gt;+ listener: ((T) -&amp;gt; Void)?&lt;br&gt;+ value: T&lt;/p&gt;&lt;hr&gt;&lt;p style=&quot;margin: 0px ; margin-left: 4px&quot;&gt;&lt;/p&gt;&lt;p style=&quot;margin: 0px ; margin-left: 4px&quot;&gt;+ init(value:)&lt;br&gt;&lt;/p&gt;&lt;p style=&quot;margin: 0px ; margin-left: 4px&quot;&gt;+ bind(listener:)&lt;/p&gt;" style="verticalAlign=top;align=left;overflow=fill;fontSize=12;fontFamily=Helvetica;html=1;rounded=0;shadow=0;comic=0;labelBackgroundColor=none;strokeWidth=1" vertex="1" parent="1">
          <mxGeometry x="530" y="720" width="380" height="130" as="geometry" />
        </mxCell>
        <mxCell id="PyNwUk2rie4rai_L8FyX-66" style="edgeStyle=orthogonalEdgeStyle;rounded=0;orthogonalLoop=1;jettySize=auto;html=1;exitX=0.25;exitY=1;exitDx=0;exitDy=0;entryX=0.25;entryY=0;entryDx=0;entryDy=0;fontSize=16;fontColor=#000000;endArrow=open;endFill=0;" edge="1" parent="1" source="PyNwUk2rie4rai_L8FyX-34" target="PyNwUk2rie4rai_L8FyX-65">
          <mxGeometry relative="1" as="geometry" />
        </mxCell>
      </root>
    </mxGraphModel>
  </diagram>
</mxfile>
